<svg width="33" height="21" viewBox="0 0 33 21" fill="none" xmlns="http://www.w3.org/2000/svg">
<path d="M21.1971 18.4205H12.4477V2.69664H21.1972L21.1971 18.4205Z" fill="#EEEEEE"/>
<path d="M33 10.5587C33 16.0816 28.5235 20.5587 23.0013 20.5587C20.7592 20.5619 18.5817 19.8086 16.821 18.4206C19.1472 16.5895 20.6406 13.7484 20.6406 10.5587C20.6406 7.36894 19.1472 4.52781 16.821 2.69676C18.5816 1.30875 20.7591 0.555427 23.0011 0.558681C28.5234 0.558681 32.9998 5.03576 32.9998 10.5587" fill="white"/>
<path d="M13.0022 10.5587C13.0022 7.3691 14.4956 4.52781 16.8212 2.69676C15.0609 1.30871 12.8836 0.555369 10.6419 0.558681C5.11959 0.558681 0.643158 5.03576 0.643158 10.5587C0.643158 16.0816 5.11959 20.5587 10.6419 20.5587C12.8837 20.562 15.061 19.8087 16.8214 18.4206C14.496 16.5899 13.0022 13.7484 13.0022 10.5587Z" fill="#9E9E9E"/>
</svg>
